<svg width="50" height="16" viewBox="0 0 50 16" fill="none" xmlns="http://www.w3.org/2000/svg">
<path d="M4.912 12.192C4.09067 12.192 3.36533 12.0533 2.736 11.776C2.10667 11.488 1.61067 11.0827 1.248 10.56C0.885333 10.0267 0.698667 9.38133 0.688 8.624H2.848C2.86933 9.14667 3.056 9.58933 3.408 9.952C3.77067 10.304 4.26667 10.48 4.896 10.48C5.44 10.48 5.872 10.352 6.192 10.096C6.512 9.82933 6.672 9.47733 6.672 9.04C6.672 8.58133 6.528 8.224 6.24 7.968C5.96267 7.712 5.58933 7.504 5.12 7.344C4.65067 7.184 4.14933 7.01333 3.616 6.832C2.752 6.53333 2.09067 6.14933 1.632 5.68C1.184 5.21067 0.96 4.58667 0.96 3.808C0.949333 3.14667 1.104 2.58133 1.424 2.112C1.75467 1.632 2.20267 1.264 2.768 1.008C3.33333 0.741333 3.984 0.608 4.72 0.608C5.46667 0.608 6.12267 0.741333 6.688 1.008C7.264 1.27467 7.712 1.648 8.032 2.128C8.36267 2.608 8.53867 3.17867 8.56 3.84H6.368C6.35733 3.44533 6.20267 3.09867 5.904 2.8C5.616 2.49067 5.21067 2.336 4.688 2.336C4.24 2.32533 3.86133 2.43733 3.552 2.672C3.25333 2.896 3.104 3.22667 3.104 3.664C3.104 4.03733 3.22133 4.336 3.456 4.56C3.69067 4.77333 4.01067 4.95467 4.416 5.104C4.82133 5.25333 5.28533 5.41333 5.808 5.584C6.36267 5.776 6.86933 6 7.328 6.256C7.78667 6.512 8.15467 6.85333 8.432 7.28C8.70933 7.696 8.848 8.23467 8.848 8.896C8.848 9.48267 8.69867 10.0267 8.4 10.528C8.10133 11.0293 7.65867 11.4347 7.072 11.744C6.48533 12.0427 5.76533 12.192 4.912 12.192ZM11.6909 2.832C11.3175 2.832 11.0082 2.72 10.7629 2.496C10.5282 2.272 10.4109 1.98933 10.4109 1.648C10.4109 1.30667 10.5282 1.02933 10.7629 0.815999C11.0082 0.591999 11.3175 0.48 11.6909 0.48C12.0642 0.48 12.3682 0.591999 12.6029 0.815999C12.8482 1.02933 12.9709 1.30667 12.9709 1.648C12.9709 1.98933 12.8482 2.272 12.6029 2.496C12.3682 2.72 12.0642 2.832 11.6909 2.832ZM10.6669 12V4.064H12.7149V12H10.6669ZM18.2125 9.632C17.8285 9.632 17.4712 9.58933 17.1405 9.504L16.5485 10.096C16.7298 10.192 16.9752 10.272 17.2845 10.336C17.5938 10.4 18.0952 10.464 18.7885 10.528C19.8445 10.624 20.6125 10.8747 21.0925 11.28C21.5725 11.6853 21.8125 12.2453 21.8125 12.96C21.8125 13.4293 21.6845 13.872 21.4285 14.288C21.1725 14.7147 20.7778 15.056 20.2445 15.312C19.7112 15.5787 19.0285 15.712 18.1965 15.712C17.0658 15.712 16.1538 15.4987 15.4605 15.072C14.7672 14.656 14.4205 14.0267 14.4205 13.184C14.4205 12.4693 14.7672 11.8507 15.4605 11.328C15.2472 11.232 15.0605 11.1307 14.9005 11.024C14.7512 10.9173 14.6178 10.8053 14.5005 10.688V10.32L15.8925 8.848C15.2738 8.304 14.9645 7.60533 14.9645 6.752C14.9645 6.21867 15.0925 5.73333 15.3485 5.296C15.6152 4.85867 15.9885 4.512 16.4685 4.256C16.9485 4 17.5298 3.872 18.2125 3.872C18.6605 3.872 19.0765 3.936 19.4605 4.064H22.4685V5.312L21.1085 5.408C21.3218 5.81333 21.4285 6.26133 21.4285 6.752C21.4285 7.28533 21.3005 7.77067 21.0445 8.208C20.7885 8.64533 20.4152 8.992 19.9245 9.248C19.4445 9.504 18.8738 9.632 18.2125 9.632ZM18.2125 8.064C18.6285 8.064 18.9698 7.952 19.2365 7.728C19.5138 7.504 19.6525 7.184 19.6525 6.768C19.6525 6.352 19.5138 6.032 19.2365 5.808C18.9698 5.584 18.6285 5.472 18.2125 5.472C17.7752 5.472 17.4232 5.584 17.1565 5.808C16.8898 6.032 16.7565 6.352 16.7565 6.768C16.7565 7.184 16.8898 7.504 17.1565 7.728C17.4232 7.952 17.7752 8.064 18.2125 8.064ZM16.2925 12.976C16.2925 13.3707 16.4738 13.664 16.8365 13.856C17.2098 14.0587 17.6632 14.16 18.1965 14.16C18.7085 14.16 19.1245 14.0533 19.4445 13.84C19.7645 13.6373 19.9245 13.36 19.9245 13.008C19.9245 12.72 19.8178 12.48 19.6045 12.288C19.4018 12.096 18.9912 11.9787 18.3725 11.936C17.9352 11.904 17.5298 11.856 17.1565 11.792C16.8472 11.9627 16.6232 12.1493 16.4845 12.352C16.3565 12.5547 16.2925 12.7627 16.2925 12.976ZM23.9619 12V4.064H25.7699L25.9299 5.408C26.1752 4.93867 26.5272 4.56533 26.9859 4.288C27.4552 4.01067 28.0045 3.872 28.6339 3.872C29.6152 3.872 30.3779 4.18133 30.9219 4.8C31.4659 5.41867 31.7379 6.32533 31.7379 7.52V12H29.6899V7.712C29.6899 7.02933 29.5512 6.50667 29.2739 6.144C28.9965 5.78133 28.5645 5.6 27.9779 5.6C27.4019 5.6 26.9272 5.80267 26.5539 6.208C26.1912 6.61333 26.0099 7.17867 26.0099 7.904V12H23.9619ZM38.6128 2.832C38.2394 2.832 37.9301 2.72 37.6848 2.496C37.4501 2.272 37.3328 1.98933 37.3328 1.648C37.3328 1.30667 37.4501 1.02933 37.6848 0.815999C37.9301 0.591999 38.2394 0.48 38.6128 0.48C38.9861 0.48 39.2901 0.591999 39.5248 0.815999C39.7701 1.02933 39.8928 1.30667 39.8928 1.648C39.8928 1.98933 39.7701 2.272 39.5248 2.496C39.2901 2.72 38.9861 2.832 38.6128 2.832ZM37.5888 12V4.064H39.6368V12H37.5888ZM41.7744 12V4.064H43.5824L43.7424 5.408C43.9877 4.93867 44.3397 4.56533 44.7984 4.288C45.2677 4.01067 45.817 3.872 46.4464 3.872C47.4277 3.872 48.1904 4.18133 48.7344 4.8C49.2784 5.41867 49.5504 6.32533 49.5504 7.52V12H47.5024V7.712C47.5024 7.02933 47.3637 6.50667 47.0864 6.144C46.809 5.78133 46.377 5.6 45.7904 5.6C45.2144 5.6 44.7397 5.80267 44.3664 6.208C44.0037 6.61333 43.8224 7.17867 43.8224 7.904V12H41.7744Z" fill="white"/>
</svg>
