<svg width="108" height="11" viewBox="0 0 108 11" fill="none" xmlns="http://www.w3.org/2000/svg">
<path d="M2.94 10L0.35 0.199999H2.268L4.032 7.998L6.104 0.199999H8.078L10.094 7.998L11.858 0.199999H13.79L11.13 10H9.002L7.056 2.734L5.054 10H2.94ZM13.4743 10L17.0583 0.199999H19.0743L22.6583 10H20.7543L19.9703 7.732H16.1483L15.3503 10H13.4743ZM16.6383 6.332H19.4803L18.0523 2.258L16.6383 6.332ZM25.1637 10V1.642H22.3077V0.199999H29.8257V1.642H26.9557V10H25.1637ZM35.2357 10.168C34.2464 10.168 33.397 9.958 32.6877 9.538C31.9784 9.10867 31.4324 8.516 31.0497 7.76C30.667 6.99467 30.4757 6.11267 30.4757 5.114C30.4757 4.11533 30.667 3.23333 31.0497 2.468C31.4324 1.70267 31.9784 1.10533 32.6877 0.676C33.397 0.246667 34.2464 0.0319998 35.2357 0.0319998C36.4117 0.0319998 37.373 0.326 38.1197 0.913999C38.8757 1.49267 39.347 2.30933 39.5337 3.364H37.5597C37.4384 2.832 37.177 2.41667 36.7757 2.118C36.3837 1.81 35.861 1.656 35.2077 1.656C34.3024 1.656 33.593 1.964 33.0797 2.58C32.5664 3.196 32.3097 4.04067 32.3097 5.114C32.3097 6.18733 32.5664 7.032 33.0797 7.648C33.593 8.25467 34.3024 8.558 35.2077 8.558C35.861 8.558 36.3837 8.418 36.7757 8.138C37.177 7.84867 37.4384 7.452 37.5597 6.948H39.5337C39.347 7.956 38.8757 8.74467 38.1197 9.314C37.373 9.88333 36.4117 10.168 35.2357 10.168ZM41.12 10V0.199999H42.912V4.274H47.308V0.199999H49.1V10H47.308V5.73H42.912V10H41.12ZM56.6227 10V1.642H53.7667V0.199999H61.2847V1.642H58.4147V10H56.6227ZM62.6122 10V0.199999H66.2102C66.9942 0.199999 67.6382 0.335333 68.1422 0.606C68.6555 0.867333 69.0382 1.22667 69.2902 1.684C69.5422 2.132 69.6682 2.63133 69.6682 3.182C69.6682 3.77933 69.5095 4.32533 69.1922 4.82C68.8842 5.31467 68.3988 5.674 67.7362 5.898L69.7662 10H67.7082L65.8882 6.136H64.4042V10H62.6122ZM64.4042 4.82H66.0982C66.6955 4.82 67.1342 4.67533 67.4142 4.386C67.6942 4.09667 67.8342 3.714 67.8342 3.238C67.8342 2.77133 67.6942 2.398 67.4142 2.118C67.1435 1.838 66.7002 1.698 66.0842 1.698H64.4042V4.82ZM70.7048 10L74.2888 0.199999H76.3048L79.8888 10H77.9848L77.2008 7.732H73.3788L72.5808 10H70.7048ZM73.8688 6.332H76.7108L75.2828 2.258L73.8688 6.332ZM81.1512 10V0.199999H82.9432V10H81.1512ZM84.8426 10V0.199999H86.6346V8.6H90.9746V10H84.8426ZM92.5536 10V0.199999H98.9516V1.642H94.3456V4.33H98.5316V5.73H94.3456V8.558H98.9516V10H92.5536ZM100.647 10V0.199999H104.245C105.029 0.199999 105.673 0.335333 106.177 0.606C106.691 0.867333 107.073 1.22667 107.325 1.684C107.577 2.132 107.703 2.63133 107.703 3.182C107.703 3.77933 107.545 4.32533 107.227 4.82C106.919 5.31467 106.434 5.674 105.771 5.898L107.801 10H105.743L103.923 6.136H102.439V10H100.647ZM102.439 4.82H104.133C104.731 4.82 105.169 4.67533 105.449 4.386C105.729 4.09667 105.869 3.714 105.869 3.238C105.869 2.77133 105.729 2.398 105.449 2.118C105.179 1.838 104.735 1.698 104.119 1.698H102.439V4.82Z" fill="white"/>
</svg>
